<?xml version="1.0" encoding="utf-8"?>
<!-- Generator: Adobe Illustrator 24.1.1, SVG Export Plug-In . SVG Version: 6.00 Build 0)  -->
<svg version="1.1" id="Layer_1" xmlns="http://www.w3.org/2000/svg" xmlns:xlink="http://www.w3.org/1999/xlink" x="0px" y="0px"
	 viewBox="0 0 195 60" style="enable-background:new 0 0 195 60;" xml:space="preserve">
<style type="text/css">
	.st0{fill:#493594;}
	.st1{font-family:'NimbusSan-Reg';}
	.st2{font-size:53px;}
	.st3{letter-spacing:-2;}
	.st4{fill:#FF1C73;}
</style>
<g id="logo" transform="translate(279.813 -167.4)">
	<text transform="matrix(1 0 0 1 -279.813 214.4)" class="st0 st1 st2 st3">Sam</text>
	<text transform="matrix(1 0 0 1 -183.4075 214.4)" class="st4 st1 st2 st3">u</text>
	<text transform="matrix(1 0 0 1 -157.0143 214.4)" class="st0 st1 st2 st3">dra</text>
	<g>
		<path id="Rectangle_142" class="st4" d="M-172.2,197.7L-172.2,197.7c0.9,0,1.7,0.8,1.7,1.7l0,0c0,0.9-0.8,1.7-1.7,1.7l0,0
			c-0.9,0-1.7-0.8-1.7-1.7l0,0C-174,198.5-173.2,197.7-172.2,197.7z"/>
		<path id="Rectangle_143" class="st4" d="M-172.2,202.3L-172.2,202.3c0.9,0,1.7,0.8,1.7,1.7l0,0c0,0.9-0.8,1.7-1.7,1.7l0,0
			c-0.9,0-1.7-0.8-1.7-1.7l0,0C-174,203.1-173.2,202.3-172.2,202.3z"/>
		<path id="Rectangle_144" class="st4" d="M-166.6,197.7L-166.6,197.7c0.9,0,1.7,0.8,1.7,1.7l0,0c0,0.9-0.8,1.7-1.7,1.7l0,0
			c-0.9,0-1.7-0.8-1.7-1.7l0,0C-168.4,198.5-167.6,197.7-166.6,197.7z"/>
		<path id="Rectangle_148" class="st4" d="M-166.6,193.6L-166.6,193.6c0.9,0,1.7,0.8,1.7,1.7l0,0c0,0.9-0.8,1.7-1.7,1.7l0,0
			c-0.9,0-1.7-0.8-1.7-1.7l0,0C-168.4,194.3-167.6,193.6-166.6,193.6z"/>
		<path id="Rectangle_145" class="st4" d="M-166.6,202.3L-166.6,202.3c0.9,0,1.7,0.8,1.7,1.7l0,0c0,0.9-0.8,1.7-1.7,1.7l0,0
			c-0.9,0-1.7-0.8-1.7-1.7l0,0C-168.4,203.1-167.6,202.3-166.6,202.3z"/>
		<path id="Rectangle_146" class="st4" d="M-172.2,193.6L-172.2,193.6c0.9,0,1.7,0.8,1.7,1.7l0,0c0,0.9-0.8,1.7-1.7,1.7l0,0
			c-0.9,0-1.7-0.8-1.7-1.7l0,0C-174,194.3-173.2,193.6-172.2,193.6z"/>
	</g>
</g>
</svg>
