<svg id="whatsapp" xmlns="http://www.w3.org/2000/svg" width="22.333" height="22.333" viewBox="0 0 22.333 22.333">
  <path id="Path_340" data-name="Path 340" d="M11.169,0h-.006A11.16,11.16,0,0,0,2.126,17.712L.734,21.86l4.292-1.372A11.165,11.165,0,1,0,11.169,0Z" fill="#4caf50"/>
  <path id="Path_341" data-name="Path 341" d="M120.252,127.749a3.151,3.151,0,0,1-2.191,1.576c-.583.124-1.346.223-3.911-.84a13.989,13.989,0,0,1-5.56-4.911,6.378,6.378,0,0,1-1.326-3.368,3.565,3.565,0,0,1,1.142-2.718,1.622,1.622,0,0,1,1.142-.4c.138,0,.262.007.374.013.328.014.493.034.709.551.269.649.925,2.251,1,2.416a.665.665,0,0,1,.047.6,1.929,1.929,0,0,1-.362.512c-.165.19-.321.335-.486.539-.151.177-.321.367-.131.7a9.912,9.912,0,0,0,1.812,2.251,8.21,8.21,0,0,0,2.619,1.615.706.706,0,0,0,.787-.124,13.513,13.513,0,0,0,.872-1.156.623.623,0,0,1,.8-.243c.3.1,1.9.893,2.225,1.057s.544.243.624.381A2.781,2.781,0,0,1,120.252,127.749Z" transform="translate(-102.585 -111.981)" fill="#fafafa"/>
</svg>
