<svg xmlns="http://www.w3.org/2000/svg" width="52.8" height="44" viewBox="0 0 52.8 44">
  <g id="wycg-1" transform="translate(0)">
    <path id="Path_342" data-name="Path 342" d="M14.305,42.24H12.32V44h7.92V42.24h-4.1l2.112-7.04H20.24V33.44H3.52a1.76,1.76,0,0,1-1.76-1.76V29.92H20.24V28.16H1.76V3.52A1.76,1.76,0,0,1,3.52,1.76H40.48a1.76,1.76,0,0,1,1.76,1.76v7.04H44V3.52A3.52,3.52,0,0,0,40.48,0H3.52A3.52,3.52,0,0,0,0,3.52V31.68A3.52,3.52,0,0,0,3.52,35.2h12.9Zm0,0" fill="#493594"/>
    <path id="Path_343" data-name="Path 343" d="M67.2,65.76v1.76h1.76V64.88a.88.88,0,0,0-.88-.88H32.88a.88.88,0,0,0-.88.88V75.44a.88.88,0,0,0,.88.88H48.72V74.56H33.76v-8.8Zm0,0" transform="translate(-28.48 -56.96)" fill="#493594"/>
    <path id="Path_344" data-name="Path 344" d="M43.44,197.28v-4.4a.88.88,0,0,0-.88-.88H32.88a.88.88,0,0,0-.88.88v4.4h1.76v-3.52h7.92v3.52Zm0,0" transform="translate(-28.48 -170.88)" fill="#493594"/>
    <path id="Path_345" data-name="Path 345" d="M152,192.88v4.4h1.76v-3.52h1.76V192h-2.64A.88.88,0,0,0,152,192.88Zm0,0" transform="translate(-135.28 -170.88)" fill="#493594"/>
    <path id="Path_346" data-name="Path 346" d="M32,32h1.76v1.76H32Zm0,0" transform="translate(-28.48 -28.48)" fill="#493594"/>
    <path id="Path_347" data-name="Path 347" d="M64,32h1.76v1.76H64Zm0,0" transform="translate(-56.96 -28.48)" fill="#493594"/>
    <path id="Path_348" data-name="Path 348" d="M96,32h1.76v1.76H96Zm0,0" transform="translate(-85.44 -28.48)" fill="#493594"/>
    <path id="Path_349" data-name="Path 349" d="M224.64,119.04v-4.4A2.64,2.64,0,0,0,222,112H202.64a2.64,2.64,0,0,0-2.64,2.64v26.4a2.64,2.64,0,0,0,2.64,2.64h12.32v-1.76H202.64a.88.88,0,0,1-.88-.88v-.88h13.2V138.4h-13.2V114.64a.88.88,0,0,1,.88-.88H222a.88.88,0,0,1,.88.88v4.4Zm0,0" transform="translate(-178 -99.68)" fill="#493594"/>
    <path id="Path_350" data-name="Path 350" d="M240,144h2.64v1.76H240Zm0,0" transform="translate(-213.6 -128.16)" fill="#493594"/>
    <path id="Path_351" data-name="Path 351" d="M280,144h2.64v1.76H280Zm0,0" transform="translate(-249.2 -128.16)" fill="#493594"/>
    <path id="Path_352" data-name="Path 352" d="M320,144h2.64v1.76H320Zm0,0" transform="translate(-284.8 -128.16)" fill="#493594"/>
    <path id="Path_353" data-name="Path 353" d="M360,144h2.64v1.76H360Zm0,0" transform="translate(-320.4 -128.16)" fill="#493594"/>
    <path id="Path_354" data-name="Path 354" d="M233.76,177.76H245.2V176H232.88a.88.88,0,0,0-.88.88v6.16a.88.88,0,0,0,.88.88h10.56v-1.76h-9.68Zm0,0" transform="translate(-206.48 -156.64)" fill="#493594"/>
    <path id="Path_355" data-name="Path 355" d="M243.44,265.76V264H232.88a.88.88,0,0,0-.88.88v6.16a.88.88,0,0,0,.88.88h10.56v-1.76h-9.68v-4.4Zm0,0" transform="translate(-206.48 -234.96)" fill="#493594"/>
    <path id="Path_356" data-name="Path 356" d="M363.44,192h-8.8a2.64,2.64,0,0,0-2.64,2.64v17.6a2.64,2.64,0,0,0,2.64,2.64h8.8a2.64,2.64,0,0,0,2.64-2.64v-17.6A2.64,2.64,0,0,0,363.44,192Zm.88,20.24a.88.88,0,0,1-.88.88h-8.8a.88.88,0,0,1-.88-.88v-.88h10.56Zm0-2.64H353.76V194.64a.88.88,0,0,1,.88-.88h8.8a.88.88,0,0,1,.88.88Zm0,0" transform="translate(-313.28 -170.88)" fill="#493594"/>
    <path id="Path_357" data-name="Path 357" d="M390.16,224h-5.28a.88.88,0,0,0-.88.88v3.52a.88.88,0,0,0,.88.88h5.28a.88.88,0,0,0,.88-.88v-3.52A.88.88,0,0,0,390.16,224Zm-.88,3.52h-3.52v-1.76h3.52Zm0,0" transform="translate(-341.76 -199.36)" fill="#493594"/>
    <path id="Path_358" data-name="Path 358" d="M390.16,288h-5.28a.88.88,0,0,0-.88.88v3.52a.88.88,0,0,0,.88.88h5.28a.88.88,0,0,0,.88-.88v-3.52A.88.88,0,0,0,390.16,288Zm-.88,3.52h-3.52v-1.76h3.52Zm0,0" transform="translate(-341.76 -256.32)" fill="#493594"/>
  </g>
</svg>
