<svg xmlns="http://www.w3.org/2000/svg" width="47.998" height="44" viewBox="0 0 47.998 44">
  <g id="wycg-2" transform="translate(0 -21.321)">
    <g id="Group_190" data-name="Group 190" transform="translate(0 21.321)">
      <g id="Group_189" data-name="Group 189" transform="translate(0 0)">
        <path id="Path_359" data-name="Path 359" d="M47,45.321a1,1,0,0,0,1-1v-5a4,4,0,0,0-4-4H36.471a4.84,4.84,0,0,1-.473-2,4.991,4.991,0,0,1,2.623-4.368,1,1,0,0,0,.389-1.375l-2.437-4.256a3.958,3.958,0,0,0-5.43-1.463L1.982,38.837A4.015,4.015,0,0,0,.529,44.29l2.519,4.4a1,1,0,0,0,1.385.36A4.914,4.914,0,0,1,7,48.321a4.977,4.977,0,0,1,4.739,3.518A4.99,4.99,0,0,1,7,55.321a1,1,0,0,0-1,1v5a4,4,0,0,0,4,4H44a4,4,0,0,0,4-4v-5a1,1,0,0,0-1-1,5,5,0,0,1,0-10ZM32.15,23.588a1.931,1.931,0,0,1,1.485-.2,1.961,1.961,0,0,1,1.2.929L36.8,27.75A6.973,6.973,0,0,0,34,33.322a6.876,6.876,0,0,0,.309,2H12ZM7,46.321a6.864,6.864,0,0,0-2.686.555L2.265,43.3a2.01,2.01,0,0,1,.723-2.731l3.065-1.785a3.952,3.952,0,0,0-.055.54v5a1,1,0,0,0,1,1,4.984,4.984,0,0,1,4.3,2.495A6.945,6.945,0,0,0,7,46.321Zm33,4a7.01,7.01,0,0,0,6,6.929v4.071a2,2,0,0,1-2,2H20v-1.75a1,1,0,0,0-2,0v1.75H10a2,2,0,0,1-2-2V57.25A7,7,0,0,0,8,43.393V39.322a2,2,0,0,1,2-2h8v2.25a1,1,0,1,0,2,0v-2.25H44a2,2,0,0,1,2,2v4.071A7.01,7.01,0,0,0,40,50.321Z" transform="translate(0 -21.321)" fill="#493594"/>
        <path id="Path_360" data-name="Path 360" d="M192.983,269.329a1,1,0,0,0-1,1v2a1,1,0,1,0,2,0v-2A1,1,0,0,0,192.983,269.329Z" transform="translate(-173.985 -246.079)" fill="#493594"/>
        <path id="Path_361" data-name="Path 361" d="M192.983,354.662a1,1,0,0,0-1,1v2a1,1,0,1,0,2,0v-2A1,1,0,0,0,192.983,354.662Z" transform="translate(-173.985 -323.412)" fill="#493594"/>
        <path id="Path_362" data-name="Path 362" d="M269.581,234.876a1,1,0,0,0-1.4.2l-12,16a1,1,0,1,0,1.6,1.2l12-16A1,1,0,0,0,269.581,234.876Z" transform="translate(-231.983 -214.675)" fill="#493594"/>
        <path id="Path_363" data-name="Path 363" d="M258.984,242.662c1.683,0,3-1.757,3-4s-1.317-4-3-4-3,1.757-3,4S257.3,242.662,258.984,242.662Zm0-6c.408,0,1,.779,1,2s-.592,2-1,2-1-.779-1-2S258.576,236.662,258.984,236.662Z" transform="translate(-231.986 -214.662)" fill="#493594"/>
        <path id="Path_364" data-name="Path 364" d="M344.317,341.329c-1.683,0-3,1.757-3,4s1.317,4,3,4,3-1.757,3-4S346,341.329,344.317,341.329Zm0,6c-.408,0-1-.779-1-2s.592-2,1-2,1,.779,1,2S344.725,347.329,344.317,347.329Z" transform="translate(-309.319 -311.329)" fill="#493594"/>
      </g>
    </g>
  </g>
</svg>
