<svg xmlns="http://www.w3.org/2000/svg" width="43.953" height="46.542" viewBox="0 0 43.953 46.542">
  <g id="wycg-3" transform="translate(-251.107 -162.299)">
    <path id="Path_365" data-name="Path 365" d="M289.235,211.6a2.522,2.522,0,0,0-2.058-1.826V195.308h1.26a.63.63,0,0,0,.63-.63v-6.3a.63.63,0,0,0-.63-.63H260.71a.63.63,0,0,0-.63.63v6.3a.63.63,0,0,0,.63.63h1.26v12.6h-.63a8.117,8.117,0,0,0-4.411,1.291v-3.182a.63.63,0,0,0-.63-.63h-4.411a.63.63,0,0,0-.63.63v14.494a.63.63,0,0,0,.63.63H256.3a.63.63,0,0,0,.63-.63v-3.181a8.126,8.126,0,0,0,4.411,1.291h10.347a8.3,8.3,0,0,0,2.123-.28l13.644-3.655A2.531,2.531,0,0,0,289.235,211.6ZM261.34,189.006h26.467v5.041H261.34Zm1.891,6.3h22.686V209.88l-7.314,1.961a2.534,2.534,0,0,0-1.667-1.464l-8.491-2.277a5.725,5.725,0,0,0-1.465-.189h-3.75Zm-7.562,24.577h-3.151V206.651h3.151Zm31.459-6.413-13.641,3.655a7.014,7.014,0,0,1-1.8.237H261.34a6.886,6.886,0,0,1-4.159-1.386l-.252-.189v-5.041l.252-.189a6.88,6.88,0,0,1,4.159-1.386h5.64a4.45,4.45,0,0,1,1.141.148l8.488,2.276a1.271,1.271,0,0,1,.926,1.085.575.575,0,0,0,.025.076.6.6,0,0,0-.017.082,1.072,1.072,0,0,1-.042.3,1.26,1.26,0,0,1-1.215.932,1.246,1.246,0,0,1-.328-.042L270.6,212.6a.63.63,0,1,0-.327,1.217l5.357,1.437a2.569,2.569,0,0,0,.656.084,2.516,2.516,0,0,0,2.425-1.852,2.246,2.246,0,0,0,.071-.386l7.683-2.06c.055-.014.114-.028.17-.037a1.26,1.26,0,0,1,1.38.927,1.229,1.229,0,0,1,.042.326A1.26,1.26,0,0,1,287.127,213.472Z" transform="translate(0 -19.907)" fill="#493594" stroke="#493594" stroke-width="0.3"/>
    <path id="Path_366" data-name="Path 366" d="M343.576,230.414h6.3a.63.63,0,1,0,0-1.26h-6.3a.63.63,0,1,0,0,1.26Z" transform="translate(-72.154 -52.493)" stroke="#493594" stroke-width="0.3"/>
    <circle id="Ellipse_18" data-name="Ellipse 18" cx="6.856" cy="6.856" r="6.856" transform="translate(280.093 163.384)" fill="#fff" stroke="#493594" stroke-width="0.3"/>
    <g id="Group_192" data-name="Group 192" transform="translate(279.136 162.449)">
      <g id="Group_191" data-name="Group 191">
        <path id="Path_367" data-name="Path 367" d="M389.994,162.449a7.887,7.887,0,1,0,7.887,7.887A7.887,7.887,0,0,0,389.994,162.449Zm0,14.647a6.76,6.76,0,1,1,6.76-6.76A6.76,6.76,0,0,1,389.994,177.1Z" transform="translate(-382.107 -162.449)" fill="#493594" stroke="#493594" stroke-width="0.3"/>
      </g>
    </g>
    <g id="Group_194" data-name="Group 194" transform="translate(282.509 166.963)">
      <g id="Group_193" data-name="Group 193" transform="translate(0 0)">
        <path id="Path_368" data-name="Path 368" d="M406.781,183.793a.563.563,0,0,0-.783,0h0l-5.235,5.235-1.855-1.855a.563.563,0,0,0-.81.783l.014.014,2.253,2.254a.564.564,0,0,0,.8,0l5.634-5.634A.564.564,0,0,0,406.781,183.793Z" transform="translate(-397.939 -183.634)" fill="#493594" stroke="#493594" stroke-width="0.3"/>
      </g>
    </g>
    <path id="Path_369" data-name="Path 369" d="M344.5,346.021l-.357,2.053a.37.37,0,0,0,.535.391l1.847-.965,1.842.974a.37.37,0,0,0,.537-.388l-.347-2.055,1.5-1.451a.37.37,0,0,0-.2-.631l-2.061-.3-.918-1.871a.37.37,0,0,0-.331-.207h0a.37.37,0,0,0-.331.205l-.927,1.866-2.063.294a.37.37,0,0,0-.206.63Zm1.077-1.678a.37.37,0,0,0,.279-.2l.68-1.369.673,1.372a.37.37,0,0,0,.278.2l1.512.224-1.1,1.065a.37.37,0,0,0-.107.327l.255,1.507-1.352-.715a.37.37,0,0,0-.344,0l-1.355.708.262-1.506a.369.369,0,0,0-.105-.327l-1.092-1.07Z" transform="translate(-72.116 -140.955)" fill="#493594" stroke="#493594" stroke-width="0.3"/>
    <path id="Path_370" data-name="Path 370" d="M390.255,354.007l-.314,1.8a.37.37,0,0,0,.536.391l1.622-.848,1.618.856a.37.37,0,0,0,.538-.388l-.305-1.8,1.314-1.275a.37.37,0,0,0-.2-.631l-1.811-.267-.806-1.644a.37.37,0,0,0-.331-.207h0a.369.369,0,0,0-.331.205l-.814,1.639-1.812.259a.37.37,0,0,0-.206.63Zm1.008-1.465a.37.37,0,0,0,.279-.2l.567-1.142.562,1.145a.37.37,0,0,0,.278.2l1.262.186-.916.888a.37.37,0,0,0-.107.327l.213,1.258-1.128-.6a.369.369,0,0,0-.344,0l-1.13.591.219-1.257a.37.37,0,0,0-.105-.327l-.911-.892Z" transform="translate(-108.267 -147.585)" fill="#493594" stroke="#493594" stroke-width="0.3"/>
    <path id="Path_371" data-name="Path 371" d="M301.783,354.007l-.314,1.8a.37.37,0,0,0,.536.391l1.622-.848,1.618.856a.37.37,0,0,0,.538-.388l-.305-1.8,1.314-1.275a.37.37,0,0,0-.2-.631l-1.811-.268-.806-1.643a.37.37,0,0,0-.331-.207h0a.37.37,0,0,0-.331.205l-.814,1.639-1.812.259a.37.37,0,0,0-.206.63Zm1.008-1.465a.37.37,0,0,0,.279-.2l.567-1.142.562,1.145a.369.369,0,0,0,.278.2l1.262.186-.915.888a.37.37,0,0,0-.107.327l.213,1.258-1.128-.6a.37.37,0,0,0-.344,0l-1.131.591.219-1.257a.37.37,0,0,0-.105-.327l-.911-.892Z" transform="translate(-38.645 -147.585)" fill="#493594" stroke="#493594" stroke-width="0.3"/>
  </g>
</svg>
