<svg xmlns="http://www.w3.org/2000/svg" width="168" height="132" viewBox="0 0 168 132">
  <g id="wyg-2" transform="translate(-44.295 -116.168)">
    <path id="Path_172" data-name="Path 172" d="M184.4,254.707c11.037.306,21.439-21.157,5.947-42.558-18.7-25.8,11.551-61.972-5.629-77.259-13.387-11.862-25.966,6.084-36.294,14.889-20.876,17.763-70.091-52.464-98.627-15.9-18.208,23.389,11.356,57.05-7,72.948-18.061,15.623-17.229,48.673,22.76,48.337l118.793-.459Z" transform="translate(13.991 -7)" fill="rgba(229,225,249,0.3)" fill-rule="evenodd"/>
    <path id="Path_173" data-name="Path 173" d="M76.611,183.642l.856.167.608.139.552.167.856.278.994.362.5.195.469.195.442.195.387.195.331.223.331.223.635.557.69.612.5.557.11.445-.387.195-.773.028-.911-.111-.828-.139-.387-.084-.359-.111-.414-.167-.442-.195-.469-.25-.469-.25-.911-.5-.773-.445-.5-.334-.5-.362-.663-.557h-.028l-.3-.417L75.728,184l.331-.278.552-.083Zm4.115,9.518.414.056.828.139.911.195.69.278.3.306-.249.362-.635.39-.828.39-.8.278-.387.139-.359.083-.442.056-.469.056h-.552l-.525.056H76.114l-.608-.083-.828-.139h-.055l-.5-.223-.221-.362.166-.417.442-.334.828-.278.58-.195.552-.139.884-.195,1.022-.167.552-.083.5-.084.5-.056h.8Zm12.924-21.9.387.64.387.835.276.807.138.39.083.362.055.445.028.473.055.557v.529l.028,1.058v1.475L95,179.44l-.138.835v.056l-.221.5-.359.223-.442-.167-.276-.445H93.54l-.276-.835-.193-.584-.166-.557-.166-.891-.166-1.03-.083-.557-.083-.5-.055-.5v-.807l.028-.417.138-.835.193-.918.276-.7.276-.306h.028l.359.25ZM83.129,175.07l.635.334.746.557.635.557.3.278.276.278.276.334.276.417.276.417.276.473.552.891.442.779.276.529.249.557.3.835.055.557-.193.39-.442.056-.5-.223-.663-.557-.469-.445-.414-.417L85.476,181l-.69-.835-.331-.39-.331-.417-.276-.39L83.6,178.6l-.166-.334-.166-.39-.3-.779-.276-.891-.138-.751.11-.445.442.056Z" transform="translate(-29.61 -27.525)" fill="#ff1c73" fill-rule="evenodd"/>
    <g id="Group_109" data-name="Group 109" transform="translate(57.538 157.762)">
      <path id="Path_174" data-name="Path 174" d="M239.766,296.551H138.483a7.105,7.105,0,0,1-6.8-6.131l-7.927-65.055a5.3,5.3,0,0,1,5.31-6.131H230.344a7.105,7.105,0,0,1,6.8,6.131l7.927,65.055A5.3,5.3,0,0,1,239.766,296.551Z" transform="translate(-123.706 -219.234)" fill="#b8aeee"/>
      <path id="Path_175" data-name="Path 175" d="M252.453,296.551H154.514a6.96,6.96,0,0,1-6.579-6.131l-7.666-65.055a5.24,5.24,0,0,1,5.134-6.131h97.938a6.96,6.96,0,0,1,6.579,6.131l7.665,65.055A5.24,5.24,0,0,1,252.453,296.551Z" transform="translate(-136.215 -219.234)" fill="#585e6e"/>
      <path id="Path_176" data-name="Path 176" d="M268.151,307.887l-100.513.488-4.381-38.47-2.085-18.3-1.1-9.644,100.508-.488,1.121,9.843,2.085,18.307Z" transform="translate(-151.249 -236.032)" fill="#b8aeee"/>
      <path id="Path_177" data-name="Path 177" d="M267.208,300.016l-100.533.285L164.59,282l100.533-.29Z" transform="translate(-154.667 -266.427)" fill="#e5e1f9"/>
    </g>
    <g id="Group_112" data-name="Group 112" transform="translate(111.799 214.156)">
      <g id="Group_110" data-name="Group 110">
        <path id="Path_178" data-name="Path 178" d="M367.5,449.781H352.96c-3.146,0-5.7,1.99-5.7,4.444s2.55,4.444,5.7,4.444H367.5c3.146,0,5.7-1.99,5.7-4.444S370.648,449.781,367.5,449.781Z" transform="translate(-347.264 -449.781)" fill="#fff"/>
      </g>
    </g>
    <g id="Group_114" data-name="Group 114" transform="translate(77.901 177.095)">
      <path id="Path_182" data-name="Path 182" d="M318.876,308.373H308.448a.75.75,0,0,1-.745-.75h0a.75.75,0,0,1,.745-.751h10.428a.75.75,0,0,1,.745.751h0A.75.75,0,0,1,318.876,308.373Z" transform="translate(-283.406 -304.768)" fill="#fff"/>
      <path id="Path_183" data-name="Path 183" d="M332.628,327.4H315.2a.75.75,0,0,1-.745-.75h0a.75.75,0,0,1,.745-.751h17.429a.75.75,0,0,1,.745.751h0A.75.75,0,0,1,332.628,327.4Z" transform="translate(-288.519 -319.14)" fill="#fff"/>
      <path id="Path_184" data-name="Path 184" d="M365.9,308.373h-2.831a.75.75,0,0,1-.745-.75h0a.75.75,0,0,1,.745-.751H365.9a.75.75,0,0,1,.745.751h0A.75.75,0,0,1,365.9,308.373Z" transform="translate(-324.772 -304.768)" fill="#fff"/>
      <g id="Group_113" data-name="Group 113">
        <path id="Path_185" data-name="Path 185" d="M223.465,299.866a1.176,1.176,0,0,0-.923-.373h-5.676c-1.532,0-3.065,0-4.6,0a.233.233,0,0,1-.262-.17c-.085-.212-.194-.419-.3-.625a.75.75,0,0,0-.666-.428q-1.442-.005-2.883,0a.5.5,0,0,0-.534.434.275.275,0,0,1-.022.053l.046.278a.917.917,0,0,0,.938.485c.686-.019,1.38,0,2.069-.007a.164.164,0,0,1,.18.111c.528,1.108,1.064,2.214,1.595,3.321q1.025,2.137,2.045,4.274a.8.8,0,0,0,.814.531h7.47c.055,0,.11,0,.164,0a.5.5,0,0,0,.483-.486.711.711,0,0,0-.414-.674,1.037,1.037,0,0,0-.416-.082q-2.8-.008-5.59,0c-.474,0-.949,0-1.423,0a.147.147,0,0,1-.16-.1c-.1-.231-.22-.457-.33-.686-.121-.251-.239-.5-.37-.779h6.1c.576,0,1.152,0,1.728,0a.97.97,0,0,0,1.01-.656,2.57,2.57,0,0,0,.087-.662c.041-.64.072-1.282.11-1.922.021-.356.048-.712.073-1.067l-.049-.3A3.261,3.261,0,0,0,223.465,299.866Zm-4.563.89.136.833h-2l-.136-.834Zm.342,2.094.137.838h-2l-.137-.839ZM213,301.436c-.1-.225-.217-.446-.332-.68h3.06l.136.834-2.616,0A.227.227,0,0,1,213,301.436Zm1.285,2.256a.23.23,0,0,1-.249-.16c-.1-.226-.217-.446-.334-.682h2.369l.137.84Zm8.083-.345c-.007.11.018.262-.045.314s-.222.026-.34.026h-1.43l-.137-.838h1.971C222.379,303.022,222.376,303.186,222.367,303.348Zm.094-1.831c0,.03-.051.054-.085.071s-.05,0-.075,0h-2.092l-.136-.833h2.433C222.491,301.017,222.481,301.268,222.461,301.516Z" transform="translate(-207.601 -298.27)" fill="#fff"/>
        <path id="Path_186" data-name="Path 186" d="M263.2,339.427a.74.74,0,0,0-.748.882,1.093,1.093,0,0,0,1.026.891.735.735,0,0,0,.759-.878A1.093,1.093,0,0,0,263.2,339.427Z" transform="translate(-249.131 -329.36)" fill="#fff"/>
        <path id="Path_187" data-name="Path 187" d="M240.376,339.428a.732.732,0,0,0-.757.87,1.076,1.076,0,0,0,1.024.9.731.731,0,0,0,.759-.868A1.09,1.09,0,0,0,240.376,339.428Z" transform="translate(-231.841 -329.36)" fill="#fff"/>
      </g>
    </g>
    <g id="Group_120" data-name="Group 120" transform="translate(76.9 195.67)">
      <path id="Path_188" data-name="Path 188" d="M217.91,385.118H205.338l-1.859-10.91h12.571Z" transform="translate(-203.479 -374.208)" fill="#574cbf"/>
      <path id="Path_189" data-name="Path 189" d="M288.417,385.118H275.845l-1.859-10.91h12.571Z" transform="translate(-256.873 -374.208)" fill="#574cbf"/>
      <path id="Path_190" data-name="Path 190" d="M357.438,385.118H344.867l-1.859-10.91h12.571Z" transform="translate(-309.142 -374.208)" fill="#574cbf"/>
      <g id="Group_119" data-name="Group 119" transform="translate(4.984 3.655)">
        <g id="Group_118" data-name="Group 118">
          <path id="Path_198" data-name="Path 198" d="M224.015,389.149v3.6h4.462v-3.6Zm.959.571a.4.4,0,1,1-.392.4A.394.394,0,0,1,224.973,389.72Zm3.242,2.766h-3.939v-.351h3.939Zm0-.615h-3.487l.929-1.014.566.571,1.277-1.287.715.72Z" transform="translate(-224.015 -389.149)" fill="#c1bae7"/>
        </g>
      </g>
    </g>
    <path id="Path_199" data-name="Path 199" d="M324.1,538.968c0,2.009-2.246,3.647-5,3.647H188.963c-2.746,0-4.992-1.638-4.992-3.647s2.246-3.642,4.992-3.642H319.1C321.854,535.326,324.1,536.964,324.1,538.968Z" transform="translate(-111.806 -300.245)" fill="#413d4c"/>
    <path id="Path_200" data-name="Path 200" d="M241.512,538.968a3.787,3.787,0,0,1-3.9,3.647H187.866a3.653,3.653,0,1,1,0-7.289h49.747A3.786,3.786,0,0,1,241.512,538.968Z" transform="translate(-111.806 -300.245)" fill="#494f5f"/>
    <path id="Path_201" data-name="Path 201" d="M322.318,551.666h-4.635a.719.719,0,0,1-.715-.72h0a.72.72,0,0,1,.715-.72h4.635a.72.72,0,0,1,.715.72h0A.719.719,0,0,1,322.318,551.666Z" transform="translate(-212.522 -311.5)" fill="#353037"/>
    <path id="Path_202" data-name="Path 202" d="M369.224,551.666H364.59a.719.719,0,0,1-.715-.72h0a.719.719,0,0,1,.715-.72h4.635a.72.72,0,0,1,.715.72h0A.719.719,0,0,1,369.224,551.666Z" transform="translate(-248.044 -311.5)" fill="#353037"/>
    <path id="Path_203" data-name="Path 203" d="M202.653,550.946a.715.715,0,1,1-.715-.72A.717.717,0,0,1,202.653,550.946Z" transform="translate(-124.871 -311.5)" fill="#353037"/>
    <ellipse id="Ellipse_2" data-name="Ellipse 2" cx="0.715" cy="0.72" rx="0.715" ry="0.72" transform="translate(80.98 238.726)" fill="#353037"/>
    <path id="Path_204" data-name="Path 204" d="M550.583,541.565v.31a2.054,2.054,0,0,1-2.049,2.06H517.967a2.053,2.053,0,0,1-2.044-2.06v-.31Z" transform="translate(-363.187 -304.958)" fill="#353037"/>
    <text id="PAY" transform="translate(119.257 216.664)" fill="#ff1c73" font-size="1" font-family="SourceCodePro-Bold, Source Code Pro" font-weight="700"><tspan x="0" y="0">PAY</tspan></text>
    <text id="www.domainname.com" transform="translate(71.068 168.073)" fill="#61608c" font-size="3" font-family="MyriadPro-Regular, Myriad Pro"><tspan x="0" y="0">www.domainname.com</tspan></text>
    <g id="Group_122" data-name="Group 122" transform="translate(111.533 197.189)">
      <g id="Group_121" data-name="Group 121" transform="translate(0)">
        <path id="Path_205" data-name="Path 205" d="M363.681,388.209v3.759h4.658v-3.759Zm1,.6a.413.413,0,1,1-.409.413A.411.411,0,0,1,364.682,388.8Zm3.385,2.888h-4.112v-.367h4.112Zm0-.642h-3.641l.97-1.059.591.6,1.333-1.343.746.752Z" transform="translate(-363.681 -388.209)" fill="#c1bae7"/>
      </g>
    </g>
    <g id="Group_124" data-name="Group 124" transform="translate(93.794 196.933)">
      <g id="Group_123" data-name="Group 123">
        <path id="Path_206" data-name="Path 206" d="M293.681,387.209v3.759h4.658v-3.759Zm1,.6a.413.413,0,1,1-.409.413A.411.411,0,0,1,294.682,387.8Zm3.385,2.888h-4.112v-.367h4.112Zm0-.642h-3.641l.97-1.059.591.6,1.333-1.343.746.752Z" transform="translate(-293.681 -387.209)" fill="#c1bae7"/>
      </g>
    </g>
    <path id="Path_207" data-name="Path 207" d="M498.1,385.484H484.972l-1.941-11.391h13.125Z" transform="translate(-341.254 -180.509)" fill="#574cbf"/>
    <g id="Group_126" data-name="Group 126" transform="translate(146.981 197.4)">
      <g id="Group_125" data-name="Group 125">
        <path id="Path_208" data-name="Path 208" d="M503.567,389.035v3.759h4.658v-3.759Zm1,.6a.413.413,0,1,1-.409.412A.411.411,0,0,1,504.568,389.631Zm3.385,2.888H503.84v-.367h4.112Zm0-.642h-3.641l.97-1.059.591.6,1.333-1.343.746.752Z" transform="translate(-503.567 -389.035)" fill="#c1bae7"/>
      </g>
    </g>
    <path id="Path_209" data-name="Path 209" d="M429.1,385.484H415.972l-1.941-11.391h13.125Z" transform="translate(-289.739 -180.509)" fill="#574cbf"/>
    <g id="Group_128" data-name="Group 128" transform="translate(129.496 197.4)">
      <g id="Group_127" data-name="Group 127">
        <path id="Path_210" data-name="Path 210" d="M434.567,389.035v3.759h4.658v-3.759Zm1,.6a.413.413,0,1,1-.409.412A.411.411,0,0,1,435.568,389.631Zm3.385,2.888H434.84v-.367h4.112Zm0-.642h-3.64l.97-1.059.591.6,1.333-1.343.746.752Z" transform="translate(-434.567 -389.035)" fill="#c1bae7"/>
      </g>
    </g>
  </g>
</svg>
