<svg xmlns="http://www.w3.org/2000/svg" xmlns:xlink="http://www.w3.org/1999/xlink" width="168" height="132" viewBox="0 0 168 132">
  <defs>
    <clipPath id="clip-path">
      <path id="Path_231" data-name="Path 231" d="M650.072,422.731l-42.529,3.65v53.81l42.057.519.472-57.964Z" transform="translate(-607.543 -422.731)" fill="none"/>
    </clipPath>
  </defs>
  <g id="wyg-1" transform="translate(-512.675 -354.089)">
    <path id="Path_211" data-name="Path 211" d="M529.65,493.04c-13.754.346-26.471-23.015-7.015-46.34,23.5-28.13,2.869-40.328,15.032-50.869,16.069-13.858,32.208,6.636,44.994,16.242,25.745,19.352,31.792-73.433,73.849-42.678,26.609,19.525-12.338,54.013,10.367,71.361,22.254,17.036,20.907,53.045-28.822,52.665l-108.405-.346Z" transform="translate(0 -9)" fill="rgba(229,225,249,0.3)" fill-rule="evenodd"/>
    <rect id="Rectangle_84" data-name="Rectangle 84" width="99.612" height="71.684" rx="11.233" transform="translate(547.827 381.195)" fill="#b8aeee"/>
    <g id="Rectangle_85" data-name="Rectangle 85" transform="translate(547.827 381.195)" fill="none" stroke="#585e6e" stroke-miterlimit="10" stroke-width="3">
      <rect width="99.612" height="71.684" rx="4" stroke="none"/>
      <rect x="1.5" y="1.5" width="96.612" height="68.684" rx="2.5" fill="none"/>
    </g>
    <path id="Path_212" data-name="Path 212" d="M636.1,442.22a3.056,3.056,0,0,1-3.237,2.835h-77.8a3.056,3.056,0,0,1-3.236-2.835V388.853a3.056,3.056,0,0,1,3.236-2.834h77.8a3.056,3.056,0,0,1,3.237,2.834Z" transform="translate(3.293 1.928)" fill="#fff"/>
    <path id="Path_213" data-name="Path 213" d="M632.861,385.8h-77.8a3.02,3.02,0,0,0-3.236,2.742v5.017H636.1v-5.017A3.02,3.02,0,0,0,632.861,385.8Z" transform="translate(3.293 1.91)" fill="rgba(229,225,249,0.3)"/>
    <rect id="Rectangle_86" data-name="Rectangle 86" width="26.953" height="39.721" rx="2" transform="translate(572.793 401.2) rotate(16.101)" fill="#574cbf"/>
    <g id="Rectangle_87" data-name="Rectangle 87" transform="translate(566.756 404.158)" fill="none" stroke="#d2afff" stroke-miterlimit="10" stroke-width="0.864">
      <rect width="26.953" height="39.721" stroke="none"/>
      <rect x="0.432" y="0.432" width="26.089" height="38.857" fill="none"/>
    </g>
    <g id="Group_130" data-name="Group 130" transform="translate(623.958 389.991)">
      <line id="Line_4" data-name="Line 4" x2="4.448" fill="#b8aeee" stroke="#585e6e" stroke-miterlimit="10" stroke-width="0.5"/>
      <line id="Line_5" data-name="Line 5" x2="4.448" transform="translate(0 1.762)" fill="#b8aeee" stroke="#585e6e" stroke-miterlimit="10" stroke-width="0.5"/>
      <line id="Line_6" data-name="Line 6" x2="4.448" transform="translate(0 3.525)" fill="#b8aeee" stroke="#585e6e" stroke-miterlimit="10" stroke-width="0.5"/>
    </g>
    <path id="Path_214" data-name="Path 214" d="M611.79,391.689h-30.2a1.831,1.831,0,0,1-1.763-1.893h0a1.831,1.831,0,0,1,1.763-1.893h30.2a1.831,1.831,0,0,1,1.763,1.893h0A1.831,1.831,0,0,1,611.79,391.689Z" transform="translate(-22.246 1.827)" fill="#ff1c73"/>
    <rect id="Rectangle_88" data-name="Rectangle 88" width="33.639" height="7.655" transform="translate(582.076 452.878)" fill="#413d4c"/>
    <path id="Path_215" data-name="Path 215" d="M621.648,457.525H566.593a4.551,4.551,0,0,1,4.551-4.551H617.1a4.552,4.552,0,0,1,4.551,4.551Z" transform="translate(4.534 7.559)" fill="#353037"/>
    <path id="Path_216" data-name="Path 216" d="M613.424,419.738H593.766a1.8,1.8,0,0,1-1.8-1.8h0a1.8,1.8,0,0,1,1.8-1.8h19.658a1.8,1.8,0,0,1,1.8,1.8h0A1.8,1.8,0,0,1,613.424,419.738Z" transform="translate(6.668 4.462)" fill="none" stroke="#d2afff" stroke-miterlimit="10" stroke-width="0.864"/>
    <path id="Path_217" data-name="Path 217" d="M613.424,425.749H593.766a1.8,1.8,0,0,1-1.8-1.8h0a1.8,1.8,0,0,1,1.8-1.8h19.658a1.8,1.8,0,0,1,1.8,1.8h0A1.8,1.8,0,0,1,613.424,425.749Z" transform="translate(6.668 4.967)" fill="none" stroke="#d2afff" stroke-miterlimit="10" stroke-width="0.864"/>
    <path id="Path_218" data-name="Path 218" d="M617.5,419.738h0a1.8,1.8,0,0,1-1.8-1.8h0a1.8,1.8,0,0,1,1.8-1.8h0a1.8,1.8,0,0,1,1.8,1.8h0A1.8,1.8,0,0,1,617.5,419.738Z" transform="translate(8.664 4.462)" fill="none" stroke="#d2afff" stroke-miterlimit="10" stroke-width="0.864"/>
    <path id="Path_219" data-name="Path 219" d="M617.5,425.749h0a1.8,1.8,0,0,1-1.8-1.8h0a1.8,1.8,0,0,1,1.8-1.8h0a1.8,1.8,0,0,1,1.8,1.8h0A1.8,1.8,0,0,1,617.5,425.749Z" transform="translate(8.664 4.967)" fill="none" stroke="#d2afff" stroke-miterlimit="10" stroke-width="0.864"/>
    <path id="Path_220" data-name="Path 220" d="M615.221,430.249a1.8,1.8,0,0,1-1.8,1.8H593.766a1.8,1.8,0,0,1-1.8-1.8h0a1.8,1.8,0,0,1,1.8-1.8h19.658a1.8,1.8,0,0,1,1.8,1.8Z" transform="translate(6.668 5.497)" fill="none" stroke="#d2afff" stroke-miterlimit="10" stroke-width="0.864"/>
    <path id="Path_221" data-name="Path 221" d="M615.221,436.26a1.8,1.8,0,0,1-1.8,1.8H593.766a1.8,1.8,0,0,1-1.8-1.8h0a1.8,1.8,0,0,1,1.8-1.8h19.658a1.8,1.8,0,0,1,1.8,1.8Z" transform="translate(6.668 6.002)" fill="none" stroke="#d2afff" stroke-miterlimit="10" stroke-width="0.864"/>
    <path id="Path_222" data-name="Path 222" d="M617.5,432.047h0a1.8,1.8,0,0,1-1.8-1.8h0a1.8,1.8,0,0,1,1.8-1.8h0a1.8,1.8,0,0,1,1.8,1.8h0A1.8,1.8,0,0,1,617.5,432.047Z" transform="translate(8.664 5.497)" fill="none" stroke="#d2afff" stroke-miterlimit="10" stroke-width="0.864"/>
    <path id="Path_223" data-name="Path 223" d="M619.3,436.26a1.8,1.8,0,0,1-1.8,1.8h0a1.8,1.8,0,0,1-1.8-1.8h0a1.8,1.8,0,0,1,1.8-1.8h0a1.8,1.8,0,0,1,1.8,1.8Z" transform="translate(8.664 6.002)" fill="none" stroke="#d2afff" stroke-miterlimit="10" stroke-width="0.864"/>
    <rect id="Rectangle_89" data-name="Rectangle 89" width="29.687" height="12.878" transform="translate(598.719 404.158)" fill="none" stroke="#d2afff" stroke-miterlimit="10" stroke-width="0.864"/>
    <rect id="Rectangle_90" data-name="Rectangle 90" width="29.687" height="12.878" rx="2" transform="translate(598.416 403.595) rotate(-11.38)" fill="#574cbf"/>
    <path id="Path_224" data-name="Path 224" d="M618.39,417.875a.951.951,0,1,1-.951-.95A.951.951,0,0,1,618.39,417.875Z" transform="translate(8.73 4.527)" fill="#ff1c73"/>
    <path id="Path_225" data-name="Path 225" d="M618.39,423.866a.951.951,0,1,1-.951-.951A.951.951,0,0,1,618.39,423.866Z" transform="translate(8.73 5.031)" fill="#ff1c73"/>
    <g id="Group_134" data-name="Group 134" transform="translate(614.907 427.181)">
      <path id="Path_226" data-name="Path 226" d="M650.072,422.731l-42.529,3.65v53.811l42.057.519.472-57.964Z" transform="translate(-606.929 -422.165)" fill="#fff" fill-rule="evenodd"/>
      <g id="Group_133" data-name="Group 133" transform="translate(0.613 0.566)">
        <g id="Group_132" data-name="Group 132" clip-path="url(#clip-path)">
          <g id="Group_131" data-name="Group 131" transform="translate(-10.998 -1.935)">
            <path id="Path_227" data-name="Path 227" d="M653.809,420.946A116.362,116.362,0,0,0,637.067,441.6c-2.187,3.572-3.083,7.758-5.633,11.14-2.423,3.225-6.214,4.814-9.188,7.426-3.163,2.785-5.3,6.309-7.789,9.661-2.942,3.964-7.237,5.759-10.7,9.126-.865.865-3.036,2.895-2.344,4.358,2,4.232,7.662,5.57,11.8,6.356,11.2,2.14,23.066,1.432,34.41,1.448,3.162,0,12.682,1.542,15.23-1.306,5.16-5.711,4.484-16.317,4.611-23.286.157-8.686,1.778-23.68-1.81-31.688-1.651-3.714-6.23-6.923-8.574-10.7" transform="translate(-597.071 -420.946)" fill="#f2f0fc" fill-rule="evenodd"/>
            <path id="Path_228" data-name="Path 228" d="M642.922,446.258l-31.185,1.652v25.017h31.012l.158-26.669Z" transform="translate(-596.192 -418.817)" fill="#fff" fill-rule="evenodd"/>
            <path id="Path_229" data-name="Path 229" d="M642.943,445.982h.094l.047.031.048.016.031.031.031.047.031.031.015.048v.047l.016.048.047,6.372.031,4.735v2.942l-.047,2.864-.126,4.61-.111,4.626v.536l-.015.031v.047l-.031.048-.031.031-.031.031-.031.015-.031.016h-1.543l-2.957.031-4.72.094-4.72.079-1.826.031h-1.148l-2.99-.048-4.72-.126-4.7-.126-1.778-.031h-.031l-.031-.016v-.015l-.031-.016V473l-.015-.016v-.235l-.048-2.785-.126-4.5-.126-4.453-.063-2.721.047-2.487.094-4.059.1-3.807v-.079l.031-.031.015-.047.031-.016.031-.031h.048l.031-.031h.047l1.9-.063,3.367-.22,5.334-.378,5.319-.377,3.3-.22,2.375-.094,3.808-.157,5.617-.2Zm-5.555.991-3.7.253-2.3.141-3.241.126-5.239.189-5.3.19-3.321.126.031.031-2.3.126v.157l.1,3.933.094,3.855.031,2.314-.048,2.532-.126,4.217-.126,4.327L611.9,472.2v.629h.016l2.2-.031,4.578-.126,4.531-.126,2.816-.048h1.086l1.714.031,4.485.094,4.547.079,2.864.048-.031-.031h1.841v-.992l-.063-4.563-.063-4.532-.016-2.785.031-2.832.094-4.563.111-5.853-5.256.377Z" transform="translate(-596.229 -418.841)" fill="#d2ccf5" fill-rule="evenodd"/>
            <path id="Path_230" data-name="Path 230" d="M626.962,479.493a3.032,3.032,0,0,1-2.974,3.02l-19.479.394-6.892,7.8-.22-23.4a3.036,3.036,0,0,1,2.974-3.052l23.506-.473a3.021,3.021,0,0,1,3.083,2.957c0,.026,0,.053,0,.079v12.667Z" transform="translate(-597.398 -417.343)" fill="rgba(52,33,158,0.1)" fill-rule="evenodd"/>
          </g>
        </g>
      </g>
      <path id="Path_232" data-name="Path 232" d="M650.262,422.224l.094.031.078.048.079.063.063.079.047.078.031.079.031.094v.094l-.047,11.171-.048,8.167-.047,4.736-.063,4.783-.094,6.151-.236,14.79-.126,8.182v.048l-.031.063-.016.047-.031.048-.047.047-.048.048-.047.016-.048.031h-.126l-6.073-.111-7.049-.126-3.147-.048-2.832-.031-2.518-.031-2.784-.031-6.294-.031-11.344-.047h-.079l-.063-.031-.078-.031-.063-.031-.048-.063-.047-.064-.031-.063-.016-.063v-.078l-.015-1.353-.127-13.343-.047-5.554v-7.237l.031-3.777.078-9.078.1-8.969.031-3.682v-.881l.031-.063.031-.047.031-.063.031-.031.047-.048.063-.015.048-.031h.063l.708-.063,3.761-.315,5.177-.472,12.634-1.149,19.793-1.809.44-.047h.1Zm-19.889,2.707-12.4.991-5.082.409-3.682.316-1.259.109v1.369L608,431.7l.094,8.7.094,8.716.016,3.619.015,2.754-.015,4.169-.048,5.35-.109,12.9h-.016v1.9l11.345.236,5.994.109,2.674.048,2.424.031,2.706.032,2.989.031,6.734.047-.031-.047,6.4.078V451.034l.031-4.689.031-4.642.094-7.993.111-10.305-19.165,1.526Z" transform="translate(-606.977 -422.209)" fill="#353037" fill-rule="evenodd"/>
      <path id="Path_233" data-name="Path 233" d="M621.046,459.872l-5.35.472-.142,7.788h5.35Z" transform="translate(-606.256 -419.042)" fill="#e5e1f9" fill-rule="evenodd"/>
      <path id="Path_234" data-name="Path 234" d="M621.112,460.195h.031l.031.016.031.031.016.015.015.031.016.031v.064l.047,1.525.016,1.133v.708l-.031.693-.079,1.1-.078,1.1-.031.693v.708l.031.6v.079l-.016.031-.015.031-.031.031-.031.031H621l-.033.015-.047.016-1.1.063h-.472l-.3.015-.756-.031-1.211-.094-1.2-.078h-.315l-.015-.016h-.016v-.031h-.015v-.015h-.016v-.031l-.015-.016-.016-.472-.063-1.1-.063-1.086-.031-.66.048-.614.078-.992.079-.991.031-.63v-.849l-.016-.393v-.094l.031-.016.016-.031.015-.015.031-.031h.031l.031-.016.347-.047,1.29-.173.8-.111.582-.031.928-.047,1.369-.063h.079Zm-1.29.567-.834.109-.5.063-.755.033-1.227.047-.016-.031-.582.048-.031.582-.047.739.015.582.048.9.047.865.016.519-.048.582-.094.992-.094,1.038-.048.031v.693l.582-.015,1.055-.079.991-.079.6-.047h.235l.378.031.031.047h.976l.015.016h.173l.015.015.048-.834.047-.629-.015-.677-.048-1.1-.031-1.055-.015-.629.015-.661.063-1.054.063-1.181-1.022.142Zm9.267-6.971-5.349.473-.236,14.113h5.35l.235-14.6Z" transform="translate(-606.275 -419.554)" fill="#e5e1f9" fill-rule="evenodd"/>
      <path id="Path_235" data-name="Path 235" d="M628.519,453.988h.031l.031.015.031.031.016.016.031.031v.063l.015.031.016,2.2.015,1.667v1.023l-.047.991-.079,1.589-.078,1.6-.048,1.007v1.022l.048,1.621.031,1.621v.3l-.016.047-.031.048-.016.048-.047.047h-.016l-.015.031-.063.016-.048.015h-.235l-1.118-.031-1.778-.078-1.778-.079-.472-.016h-.032l-.031-.015v-.031h-.016v-.048l-.031-.928-.063-1.558-.047-1.558-.016-.943.031-.866.094-1.416.079-1.416.047-.9v-1.227l-.031-1.888-.032-1.447v-.048l.016-.047.015-.031.031-.048.031-.031.031-.031.031-.016.048-.015.047-.016,1.07-.126.85-.063,1.369-.078,2.013-.111h.111Zm-1.888.629-1.211.126-.756.094-.031-.031-1.07.094h-.157l-.078,1.574-.1,1.73-.047,1.1v.865l.047,1.338.048,1.306v.786l-.048.881-.11,1.479-.094,1.526-.048.031v1.164l.724-.031,1.526-.078,1.431-.079.866-.031h.409l.016-.519.094-1.51.078-1.51.048-.961v-1.007l-.048-1.573-.031-1.573v-.96l.016-.976.078-1.573.079-1.887-1.637.189Zm11.534-5.6-5.35.315-.314,19.164h5.334l.314-19.479Z" transform="translate(-605.658 -419.955)" fill="#e5e1f9" fill-rule="evenodd"/>
      <path id="Path_236" data-name="Path 236" d="M637.465,448.841h.031l.031.031h.016l.031.031v.031l.031.031v.063l.016,2.754V455.1l-.048,1.242-.094,2-.094,1.983-.048,1.259v1.259l.031,2.031.031,2.013v1.621l-.015.048-.016.047-.031.048-.031.047-.031.031-.047.031-.048.016h-.456l-2.218-.079-2.219-.078-.551-.016h-.031v-.015h-.015l-.016-.016v-.015l-.015-.031v-1.369l-.063-1.935-.048-1.92-.015-1.179.047-1.055.094-1.762.094-1.763.048-1.1v-1.495l-.031-2.36-.016-2.344v-1.007l.031-.048.033-.031.031-.047.031-.031.047-.016.048-.015h.047l1.055-.063,1.73-.063,2.517-.079Zm-2.375.6-1.526.126-.944.063h-.252l-.048,1.1-.094,2.187-.094,2.2-.063,1.416.016,1.055.031,1.684.047,1.652v.991l-.047,1.1-.126,1.889-.111,1.887-.047,1.2v.425l.786-.031,1.888-.079,1.778-.078-.016-.016h.519v-1.133l.048-.739.078-1.9.094-1.92.048-1.211v-1.259l-.031-1.967-.016-1.968v-1.2l.031-1.227.064-1.982.094-2.454-2.109.189Z" transform="translate(-604.912 -419.969)" fill="#e5e1f9" fill-rule="evenodd"/>
      <path id="Path_237" data-name="Path 237" d="M646.395,422.383v19.856l-19.825.834v-2.989Z" transform="translate(-605.329 -422.194)" fill="rgba(52,33,158,0.1)" fill-rule="evenodd"/>
      <path id="Path_238" data-name="Path 238" d="M645.634,431.294l-33.4,2.833" transform="translate(-606.535 -421.445)" fill="#fff" fill-rule="evenodd"/>
      <path id="Path_239" data-name="Path 239" d="M645.87,431.112l.094.189-.063.22-.2.111h-.031l-1.621.235-1.1.157-.676.063-.976.033-1.542.047-1.558.031-.976.048-.723.094-1.149.2-1.148.19-.693.094h-2.046l-1.29-.016h-.787l-.834.142-1.337.22-1.323.236-.849.141h-.315l-.534.031-1.353.031-1.353.016-.835.031-.834.109-1.337.2-1.323.189-.817.111-.85.047-1.369.063-1.841.064-.283-.064-.126-.2.094-.2.268-.126,1.825-.236,1.369-.172.834-.111.834-.015,1.338-.031,1.338-.032.834-.031.85-.11,1.337-.2,1.338-.189.5-.079.331-.031.85-.015h1.353l1.353.015.834-.015.787-.126,1.259-.22,1.258-.236.771-.126h1.857l1.164-.016.739-.015.961-.126,1.542-.221,1.542-.235.944-.126.693-.031,1.1-.031,1.636-.048h.047l.221.079Z" transform="translate(-606.566 -421.467)" fill="#d2ccf5" fill-rule="evenodd"/>
      <path id="Path_240" data-name="Path 240" d="M645.225,439.857l-32.994,1.872" transform="translate(-606.535 -420.725)" fill="#fff" fill-rule="evenodd"/>
      <path id="Path_241" data-name="Path 241" d="M645.208,439.6h.031l.22.079.094.189-.078.22-.2.111h-.031l-1.6.172-1.086.126-.677.063h-4.956l-.723.079-1.149.157-1.133.157-.692.079h-.756l-1.259-.063-1.259-.048-.787-.015-.817.094-1.306.2-1.321.19-.834.11h-2.171l-1.338-.015h-.834l-.818.094-1.305.157-1.306.157-.818.094h-.834l-1.353.031h-1.841l-.284-.063-.109-.2.094-.2.268-.111,1.809-.189,1.353-.142.834-.063h2.124l1.323.016h.834l.834-.094,1.322-.157,1.322-.158.5-.063.314-.031h.85l1.322.063,1.338.048h.834l.771-.094,1.259-.189,1.227-.189.756-.111h.692l1.149.048,1.148.015h.724l.944-.079,1.526-.189,1.525-.172.944-.094.676-.016h2.722Z" transform="translate(-606.566 -420.747)" fill="#d2ccf5" fill-rule="evenodd"/>
    </g>
    <text id="www.domainname.com" transform="translate(559.114 391.246)" fill="#fff" font-size="1" font-family="SourceSansPro-Bold, Source Sans Pro" font-weight="700" letter-spacing="0.073em"><tspan x="0" y="0">www.domainname.com</tspan></text>
  </g>
</svg>
