<svg xmlns="http://www.w3.org/2000/svg" width="168" height="132.548" viewBox="0 0 168 132.548">
  <g id="wyg-4" transform="translate(-436.341 -126.35)">
    <path id="Path_288" data-name="Path 288" d="M485.815,256.3c-53.038,1.4-58.661-24.41-39.2-47.421,23.433-27.753,2.831-39.8,14.981-50.18,16.041-13.682,32.161,6.53,44.9,16.014,25.713,19.085,31.767-72.492,73.68-42.135,26.577,19.279-12.306,53.29,10.339,70.393,22.293,16.869,20.917,52.434-28.7,52.046L485.775,256.3Z" transform="translate(0 0)" fill="rgba(227,225,246,0.3)" fill-rule="evenodd"/>
    <g id="Group_186" data-name="Group 186" transform="translate(484.291 136.557)">
      <g id="Group_171" data-name="Group 171">
        <path id="Path_289" data-name="Path 289" d="M529.07,236.313H486.308a6.808,6.808,0,0,1-6.808-6.808V143.13a6.807,6.807,0,0,1,6.808-6.807H529.07a6.807,6.807,0,0,1,6.808,6.807v86.376A6.808,6.808,0,0,1,529.07,236.313Z" transform="translate(-478.366 -135.188)" fill="#b8aeee"/>
        <path id="Path_290" data-name="Path 290" d="M479.5,144.883h56.375V225.4H479.5Z" transform="translate(-478.366 -134.013)" fill="#fff"/>
        <path id="Path_291" data-name="Path 291" d="M490.518,170.315l-1.225,1.224a1.134,1.134,0,0,0,0,1.6l1.226,1.225a3.4,3.4,0,0,1,1,2.406V225.4H479.5V144.883h12.014v23.024a3.4,3.4,0,0,1-1,2.408Z" transform="translate(-478.366 -134.013)" fill="#b8aeee"/>
        <path id="Path_292" data-name="Path 292" d="M529.207,237.584H486.445a7.95,7.95,0,0,1-7.942-7.942V143.267a7.951,7.951,0,0,1,7.942-7.942h42.762a7.951,7.951,0,0,1,7.942,7.942v86.376a7.95,7.95,0,0,1-7.942,7.942Zm-42.762-99.99a5.679,5.679,0,0,0-5.673,5.673v86.376a5.678,5.678,0,0,0,5.673,5.673h42.762a5.678,5.678,0,0,0,5.673-5.673V143.267a5.679,5.679,0,0,0-5.673-5.673Z" transform="translate(-478.503 -135.325)" fill="#353037"/>
        <g id="Group_170" data-name="Group 170" transform="translate(24.221 5.076)" opacity="0.41" style="mix-blend-mode: multiply;isolation: isolate">
          <path id="Path_293" data-name="Path 293" d="M508.869,142.057h-7.934a1.134,1.134,0,1,1,0-2.269h7.934a1.134,1.134,0,1,1,0,2.269Z" transform="translate(-499.8 -139.788)" fill="#b8aeee"/>
        </g>
        <circle id="Ellipse_11" data-name="Ellipse 11" cx="1.135" cy="1.135" r="1.135" transform="translate(37.448 5.075)" fill="#b8aeee" opacity="0.41" style="mix-blend-mode: multiply;isolation: isolate"/>
      </g>
      <g id="Group_172" data-name="Group 172" transform="translate(6.007 22.751)">
        <path id="Path_294" data-name="Path 294" d="M486.054,159.8v-3.331a1.134,1.134,0,1,0-2.269,0V159.8a1.134,1.134,0,0,0,2.269,0Z" transform="translate(-483.785 -155.33)" fill="#fff"/>
      </g>
      <g id="Group_173" data-name="Group 173" transform="translate(16.693 23.395)">
        <path id="Path_295" data-name="Path 295" d="M494.315,158.165H511.26a1.134,1.134,0,1,0,0-2.269H494.315a1.134,1.134,0,0,0,0,2.269Z" transform="translate(-493.181 -155.896)" fill="#869af6"/>
      </g>
      <g id="Group_174" data-name="Group 174" transform="translate(16.693 27.569)">
        <path id="Path_296" data-name="Path 296" d="M494.315,161.835h10.139a1.134,1.134,0,0,0,0-2.269H494.315a1.134,1.134,0,0,0,0,2.269Z" transform="translate(-493.181 -159.566)" fill="#869af6"/>
      </g>
      <g id="Group_175" data-name="Group 175" transform="translate(6.007 35.529)">
        <path id="Path_297" data-name="Path 297" d="M486.054,171.031V167.7a1.134,1.134,0,1,0-2.269,0v3.331a1.134,1.134,0,0,0,2.269,0Z" transform="translate(-483.785 -166.565)" fill="#fff"/>
      </g>
      <g id="Group_176" data-name="Group 176" transform="translate(6.007 48.306)">
        <path id="Path_298" data-name="Path 298" d="M486.054,182.266v-3.331a1.134,1.134,0,1,0-2.269,0v3.331a1.134,1.134,0,0,0,2.269,0Z" transform="translate(-483.785 -177.8)" fill="#fff"/>
      </g>
      <g id="Group_177" data-name="Group 177" transform="translate(6.007 61.083)">
        <path id="Path_299" data-name="Path 299" d="M486.054,193.5v-3.331a1.134,1.134,0,0,0-2.269,0V193.5a1.134,1.134,0,1,0,2.269,0Z" transform="translate(-483.785 -189.035)" fill="#fff"/>
      </g>
      <g id="Group_178" data-name="Group 178" transform="translate(17.58 32.633)">
        <path id="Path_300" data-name="Path 300" d="M530.077,168.833V189.3a2.267,2.267,0,0,1-2.269,2.269H496.23a2.268,2.268,0,0,1-2.269-2.269V168.833a2.269,2.269,0,0,1,2.269-2.269h31.578a2.268,2.268,0,0,1,2.269,2.269Z" transform="translate(-493.961 -163.669)" fill="#ff1c73"/>
        <path id="Path_301" data-name="Path 301" d="M518.228,168.269a2.864,2.864,0,0,1,.556-1.7h4.68a2.863,2.863,0,0,1,.556,1.7h0" transform="translate(-490.63 -163.669)" fill="#eb68a5"/>
        <circle id="Ellipse_12" data-name="Ellipse 12" cx="2.896" cy="2.896" r="2.896" transform="translate(27.598)" fill="#f8dceb"/>
      </g>
      <g id="Group_179" data-name="Group 179" transform="translate(17.58 66.683)">
        <path id="Path_302" data-name="Path 302" d="M530.077,198.774v19.541H493.961V198.774a2.269,2.269,0,0,1,2.269-2.269h31.578A2.268,2.268,0,0,1,530.077,198.774Z" transform="translate(-493.961 -193.609)" fill="#869af6"/>
        <path id="Path_303" data-name="Path 303" d="M524.02,198.209a2.9,2.9,0,1,1-5.236-1.7h4.68a2.878,2.878,0,0,1,.556,1.7Z" transform="translate(-490.63 -193.609)" fill="#6a84f5"/>
        <circle id="Ellipse_13" data-name="Ellipse 13" cx="2.896" cy="2.896" r="2.896" transform="translate(27.598)" fill="#d3ddfb"/>
      </g>
      <path id="Path_304" data-name="Path 304" d="M529.107,153.238H493.9a1.134,1.134,0,0,1-1.135-1.134v-2.5a1.135,1.135,0,0,1,1.135-1.134h35.21a1.135,1.135,0,0,1,1.135,1.134v2.5A1.134,1.134,0,0,1,529.107,153.238Z" transform="translate(-476.545 -133.521)" fill="#d3ddfb"/>
      <path id="Path_305" data-name="Path 305" d="M525.282,148.468h-4.657v4.77h4.657a1.134,1.134,0,0,0,1.135-1.134v-2.5a1.134,1.134,0,0,0-1.135-1.134Z" transform="translate(-472.72 -133.521)" fill="#a1b0f7"/>
      <g id="Group_182" data-name="Group 182" transform="translate(22.847 40.463)">
        <g id="Group_180" data-name="Group 180" transform="translate(0 9.704)">
          <path id="Path_306" data-name="Path 306" d="M514.63,179.437h-14.9a1.135,1.135,0,0,0,0,2.27h14.9a1.135,1.135,0,0,0,0-2.27Z" transform="translate(-498.592 -179.437)" fill="#fff"/>
        </g>
        <g id="Group_181" data-name="Group 181" transform="translate(0 5.296)">
          <path id="Path_307" data-name="Path 307" d="M514.63,175.561h-14.9a1.134,1.134,0,1,0,0,2.269h14.9a1.134,1.134,0,0,0,0-2.269Z" transform="translate(-498.592 -175.561)" fill="#fff"/>
        </g>
        <path id="Path_308" data-name="Path 308" d="M502.377,170.9h-2.65a1.134,1.134,0,1,0,0,2.269h2.65a1.134,1.134,0,1,0,0-2.269Z" transform="translate(-498.592 -170.904)" fill="#fff"/>
      </g>
      <g id="Group_185" data-name="Group 185" transform="translate(22.847 74.536)">
        <g id="Group_183" data-name="Group 183" transform="translate(0 9.706)">
          <path id="Path_309" data-name="Path 309" d="M514.63,209.4h-14.9a1.134,1.134,0,1,0,0,2.269h14.9a1.134,1.134,0,0,0,0-2.269Z" transform="translate(-498.592 -209.398)" fill="#fff"/>
        </g>
        <g id="Group_184" data-name="Group 184" transform="translate(0 5.297)">
          <path id="Path_310" data-name="Path 310" d="M514.63,205.522h-14.9a1.134,1.134,0,1,0,0,2.269h14.9a1.134,1.134,0,0,0,0-2.269Z" transform="translate(-498.592 -205.522)" fill="#fff"/>
        </g>
        <path id="Path_311" data-name="Path 311" d="M502.377,200.864h-2.65a1.134,1.134,0,1,0,0,2.269h2.65a1.134,1.134,0,1,0,0-2.269Z" transform="translate(-498.592 -200.864)" fill="#fff"/>
      </g>
    </g>
    <g id="Flat" transform="translate(522.522 191.039)">
      <circle id="Ellipse_14" data-name="Ellipse 14" cx="4.095" cy="4.095" r="4.095" transform="translate(45.628 10.53)" fill="#d4d4d2"/>
      <path id="Path_312" data-name="Path 312" d="M563.343,207.081H561v-3.1l-4.423-5.528,1.828-1.463,4.68,5.85a1.168,1.168,0,0,1,.256.731Z" transform="translate(-506.015 -181.341)" fill="#d4d4d2"/>
      <path id="Path_313" data-name="Path 313" d="M545.422,193.336l-2.341,1.17v1.17a2.339,2.339,0,0,1-2.339,2.339h-7.021v-11.7h9.36v3.51l.779,1.17Z" transform="translate(-509.153 -182.806)" fill="#f4c8a6"/>
      <path id="Path_314" data-name="Path 314" d="M543.3,190.715h-5.459v-2.341h4.68v1.17Z" transform="translate(-508.588 -182.524)" fill="#f2b78a"/>
      <path id="Path_315" data-name="Path 315" d="M515.205,225.409h8.19v7.019h-8.19Z" transform="translate(-511.695 -177.44)" fill="#353037"/>
      <circle id="Ellipse_15" data-name="Ellipse 15" cx="8.19" cy="8.19" r="8.19" transform="translate(7.019 51.479)" fill="#353037"/>
      <circle id="Ellipse_16" data-name="Ellipse 16" cx="3.51" cy="3.51" r="3.51" transform="translate(11.699 56.159)" fill="#d4d4d2"/>
      <path id="Path_316" data-name="Path 316" d="M515.488,197.633h14.04a2.339,2.339,0,0,1,2.339,2.339v16.38h-18.72v-16.38A2.34,2.34,0,0,1,515.488,197.633Z" transform="translate(-511.978 -181.253)" fill="#73452f"/>
      <path id="Path_317" data-name="Path 317" d="M516.233,204.834h2.341v7.019h-2.341Z" transform="translate(-511.554 -180.264)" fill="#b8aeee" opacity="0.41" style="mix-blend-mode: multiply;isolation: isolate"/>
      <path id="Path_318" data-name="Path 318" d="M513.147,200.719h18.72v2.341h-18.72Z" transform="translate(-511.978 -180.829)" fill="#b8aeee" opacity="0.41" style="mix-blend-mode: multiply;isolation: isolate"/>
      <path id="Path_319" data-name="Path 319" d="M555.124,235.577l7.3-7.3a3.51,3.51,0,0,0,1.028-2.482v-9.077a4.681,4.681,0,0,1,4.68-4.68v5.85a5.85,5.85,0,0,0,5.85,5.85v4.68h-2.61a4.681,4.681,0,0,0-3.463,1.532L559,239.753a4.679,4.679,0,0,1-3.463,1.532H513.147a15.423,15.423,0,0,1,12.663-15.173l.207-.038v-4.68h19.89a4.048,4.048,0,0,1-3.474,4.007,5.492,5.492,0,0,0-4.715,5.436v.275a5.492,5.492,0,0,0,5.492,5.492h9.434a3.51,3.51,0,0,0,2.482-1.028Z" transform="translate(-511.978 -179.276)" fill="#585e6e"/>
      <path id="Path_320" data-name="Path 320" d="M523.579,230.332l-.9-2.161a11.916,11.916,0,0,1,2.446-.721l.418,2.3A9.651,9.651,0,0,0,523.579,230.332Z" transform="translate(-510.669 -177.159)" fill="#353037"/>
      <path id="Path_321" data-name="Path 321" d="M519.384,234.771l-2.106-1.02a11.938,11.938,0,0,1,4-4.646l1.32,1.932a9.6,9.6,0,0,0-3.216,3.734Z" transform="translate(-511.411 -176.932)" fill="#353037"/>
      <path id="Path_322" data-name="Path 322" d="M532.008,214.093h-18.72a1.169,1.169,0,0,0-1.169,1.169v1.364a2.339,2.339,0,0,0,1.921,2.3l11.91,2.164a1.066,1.066,0,0,0,.208.019h5.85a1.17,1.17,0,0,0,1.17-1.17v-4.68A1.17,1.17,0,0,0,532.008,214.093Zm-1.17,4.68h-4.574l-11.805-2.147v-.193h16.379Z" transform="translate(-512.119 -178.993)" fill="#d4d4d2"/>
      <path id="Path_323" data-name="Path 323" d="M544.461,189.08h-5.85v2.778a3.071,3.071,0,0,1-4.68,2.617,3.122,3.122,0,0,1-.451-.339,3.059,3.059,0,0,1-1-1.972l-.25-2.5a5.85,5.85,0,0,1,5.237-6.4c.193-.019.389-.03.583-.03h.556A5.85,5.85,0,0,1,544.461,189.08Z" transform="translate(-509.362 -183.23)" fill="#353037"/>
      <path id="Path_324" data-name="Path 324" d="M533.722,211.006v2.341a3.51,3.51,0,0,0,3.51,3.51h11.7l-5.85,15.21h5.85l5.5-13.238a5.654,5.654,0,0,0-5.221-7.822Z" transform="translate(-509.153 -179.417)" fill="#73452f"/>
      <path id="Path_325" data-name="Path 325" d="M547.762,204.794l-7.019-8.19h-7.021v16.379h9.36v-5.849l1.312,1.311a3.506,3.506,0,0,0,2.482,1.028h11.416v-4.68Z" transform="translate(-509.153 -181.394)" fill="#869af6"/>
      <path id="Path_326" data-name="Path 326" d="M557.383,213.024h9.36v-8.19H564.68a4.236,4.236,0,0,0-3.787,2.339l-3.51,1.17Z" transform="translate(-505.905 -180.264)" fill="#585e6e"/>
      <path id="Path_327" data-name="Path 327" d="M574.79,236.685a8.183,8.183,0,1,1-.083-1.169A8.053,8.053,0,0,1,574.79,236.685Z" transform="translate(-505.763 -177.016)" fill="#353037"/>
      <path id="Path_328" data-name="Path 328" d="M574.708,235.515h-9.277l-4.632,6.949a8.189,8.189,0,1,1,13.909-6.949Z" transform="translate(-505.764 -177.016)" fill="#353037"/>
      <path id="Path_329" data-name="Path 329" d="M569.419,236.12a3.516,3.516,0,1,1-.2-1.169A3.446,3.446,0,0,1,569.419,236.12Z" transform="translate(-505.217 -176.451)" fill="#cdcdcb"/>
      <path id="Path_330" data-name="Path 330" d="M569.216,234.951h-4.332l-1.985,2.975a3.51,3.51,0,0,1,6.016-3.615A3.583,3.583,0,0,1,569.216,234.951Z" transform="translate(-505.217 -176.451)" fill="#c5c5c3"/>
      <path id="Path_331" data-name="Path 331" d="M560.984,234.415,564.566,238a2.174,2.174,0,0,0,3.072,0h0a2.172,2.172,0,0,0,0-3.072h0l-3.584-3.582Z" transform="translate(-505.411 -176.625)" fill="#d4d4d2"/>
      <path id="Path_332" data-name="Path 332" d="M556.354,240.478h4.68l4.68-7.02h9.36a7.019,7.019,0,0,0-7.019-7.019h-2.341a9.36,9.36,0,0,0-9.36,9.36Z" transform="translate(-506.046 -177.298)" fill="#585e6e"/>
      <path id="Path_333" data-name="Path 333" d="M555.326,203.8v4.68l2.339,1.17v2.339h4.68v-5.849Z" transform="translate(-506.188 -180.405)" fill="#f4c8a6"/>
      <circle id="Ellipse_17" data-name="Ellipse 17" cx="2.34" cy="2.34" r="2.34" transform="translate(49.138 28.08)" fill="#353037"/>
      <g id="Group_187" data-name="Group 187" transform="translate(14.039 45.629)">
        <path id="Path_334" data-name="Path 334" d="M524.463,223.351h8.191v2.341h-8.191Z" transform="translate(-524.463 -223.351)" fill="#353037"/>
        <path id="Path_335" data-name="Path 335" d="M548.466,236.12H526.521V233.78h24.286a3.51,3.51,0,0,0,2.482-1.028l.142-.142-2.482,2.482A3.51,3.51,0,0,1,548.466,236.12Z" transform="translate(-524.18 -222.08)" fill="#353037"/>
        <path id="Path_336" data-name="Path 336" d="M565.837,225.409a10.544,10.544,0,0,0-10.38,8.774h2.383a8.2,8.2,0,0,1,8-6.435h2.341v-2.339Z" transform="translate(-520.208 -223.068)" fill="#353037"/>
      </g>
      <path id="Path_337" data-name="Path 337" d="M531.948,216.15h9.36a2.34,2.34,0,0,1,2.339,2.341h0a2.339,2.339,0,0,1-2.339,2.339h-9.36a2.34,2.34,0,0,1-2.341-2.339h0A2.34,2.34,0,0,1,531.948,216.15Z" transform="translate(-509.718 -178.711)" fill="#3a5078"/>
      <path id="Path_338" data-name="Path 338" d="M542.617,206.5l-3.852-3.852-1.655,1.655,5.507,5.507Z" transform="translate(-508.688 -180.564)" fill="#869af6"/>
      <path id="Path_339" data-name="Path 339" d="M541.952,229.524h7.02a2.34,2.34,0,0,1,0,4.68h-7.02v-4.68Z" transform="translate(-508.023 -176.875)" fill="#d4d4d2"/>
    </g>
  </g>
</svg>
